Martel Devanagari-Bold.ufo
<glyph name="edeva" format="1">
  <advance width="588"/>
  <unicode hex="090F"/>
  <outline>
    <contour>
      <point x="91" y="605" type="line"/>
      <point x="91" y="279" type="line" smooth="yes"/>
      <point x="91" y="232"/>
      <point x="103" y="211"/>
      <point x="199" y="147" type="curve" smooth="yes"/>
      <point x="559" y="-95" type="line"/>
      <point x="505" y="-154" type="line"/>
      <point x="505" y="-156" type="line"/>
      <point x="514" y="-176"/>
      <point x="536" y="-202"/>
      <point x="573" y="-202" type="curve" smooth="yes"/>
      <point x="613" y="-202"/>
      <point x="647" y="-180"/>
      <point x="647" y="-136" type="curve" smooth="yes"/>
      <point x="647" y="-101"/>
      <point x="625" y="-73"/>
      <point x="529" y="-10" type="curve" smooth="yes"/>
      <point x="224" y="197" type="line" smooth="yes"/>
      <point x="186" y="223"/>
      <point x="180" y="240"/>
      <point x="180" y="268" type="curve" smooth="yes"/>
      <point x="180" y="605" type="line"/>
    </contour>
    <contour>
      <point x="399" y="605" type="line"/>
      <point x="399" y="325" type="line" smooth="yes"/>
      <point x="399" y="281"/>
      <point x="362" y="263"/>
      <point x="319" y="244" type="curve"/>
      <point x="319" y="233" type="line"/>
      <point x="384" y="189" type="line"/>
      <point x="427" y="204"/>
      <point x="487" y="242"/>
      <point x="487" y="342" type="curve" smooth="yes"/>
      <point x="487" y="605" type="line"/>
    </contour>
    <contour>
      <point x="-31" y="650" type="line"/>
      <point x="-31" y="634" type="line"/>
      <point x="0" y="575" type="line"/>
      <point x="588" y="575" type="line"/>
      <point x="588" y="590" type="line"/>
      <point x="556" y="650" type="line"/>
    </contour>
  </outline>
</glyph>
<glyph name="ghadeva" format="1">
  <advance width="687"/>
  <unicode hex="0918"/>
  <outline>
    <contour>
      <point x="-56" y="669" type="line"/>
      <point x="-56" y="647" type="line"/>
      <point x="-9" y="556" type="line"/>
      <point x="463" y="556" type="line"/>
      <point x="463" y="173" type="line"/>
      <point x="431" y="173" type="line"/>
      <point x="464" y="138" type="line"/>
      <point x="461" y="26" type="line"/>
      <point x="575" y="-37" type="line"/>
      <point x="597" y="-37" type="line"/>
      <point x="597" y="556" type="line"/>
      <point x="687" y="556" type="line"/>
      <point x="687" y="577" type="line"/>
      <point x="638" y="669" type="line"/>
    </contour>
    <contour>
      <point x="88" y="367"/>
      <point x="88" y="261" type="curve" smooth="yes"/>
      <point x="88" y="197"/>
      <point x="180" y="81"/>
      <point x="287" y="81" type="curve" smooth="yes"/>
      <point x="376" y="81"/>
      <point x="425" y="115"/>
      <point x="499" y="164" type="curve"/>
      <point x="499" y="320" type="line"/>
      <point x="451" y="259"/>
      <point x="334" y="186"/>
      <point x="244" y="186" type="curve" smooth="yes"/>
      <point x="212" y="186"/>
      <point x="164" y="202"/>
      <point x="164" y="233" type="curve" smooth="yes"/>
      <point x="164" y="274"/>
      <point x="218" y="332"/>
      <point x="310" y="332" type="curve" smooth="yes"/>
      <point x="329" y="332"/>
      <point x="345" y="329"/>
      <point x="363" y="322" type="curve"/>
      <point x="373" y="345" type="line"/>
      <point x="357" y="438" type="line"/>
      <point x="335" y="449"/>
      <point x="293" y="451"/>
      <point x="264" y="451" type="curve" smooth="yes"/>
      <point x="181" y="451"/>
    </contour>
    <contour>
      <point x="230" y="425" type="line"/>
      <point x="243" y="426"/>
      <point x="139" y="460"/>
      <point x="135" y="504" type="curve" smooth="yes"/>
      <point x="135" y="540"/>
      <point x="151" y="563"/>
      <point x="173" y="577" type="curve"/>
      <point x="23" y="580" type="line"/>
      <point x="19" y="559"/>
      <point x="17" y="541"/>
      <point x="17" y="527" type="curve" smooth="yes"/>
      <point x="18" y="459"/>
      <point x="84" y="430"/>
      <point x="174" y="395" type="curve"/>
    </contour>
    <contour>
      <point x="531" y="669" type="move" name="top"/>
    </contour>
    <contour>
      <point x="531" y="0" type="move" name="bottom"/>
    </contour>
  </outline>
</glyph>
<glyph name="ttadeva" format="1">
  <advance width="581"/>
  <unicode hex="091F"/>
  <outline>
    <contour>
      <point x="-56" y="669" type="line"/>
      <point x="-56" y="647" type="line"/>
      <point x="-9" y="556" type="line"/>
      <point x="308" y="556" type="line"/>
      <point x="308" y="459" type="line"/>
      <point x="189" y="445"/>
      <point x="66" y="385"/>
      <point x="66" y="238" type="curve" smooth="yes"/>
      <point x="66" y="103"/>
      <point x="170" y="-9"/>
      <point x="318" y="-9" type="curve" smooth="yes"/>
      <point x="417" y="-9"/>
      <point x="474" y="14"/>
      <point x="568" y="61" type="curve"/>
      <point x="507" y="180" type="line"/>
      <point x="419" y="126"/>
      <point x="339" y="104"/>
      <point x="275" y="104" type="curve" smooth="yes"/>
      <point x="211" y="104"/>
      <point x="120" y="120"/>
      <point x="120" y="199" type="curve" smooth="yes"/>
      <point x="120" y="295"/>
      <point x="273" y="331"/>
      <point x="442" y="340" type="curve"/>
      <point x="442" y="556" type="line"/>
      <point x="581" y="556" type="line"/>
      <point x="581" y="577" type="line"/>
      <point x="532" y="669" type="line"/>
    </contour>
    <contour>
      <point x="376" y="669" type="move" name="top"/>
    </contour>
    <contour>
      <point x="318" y="31" type="move" name="bottom"/>
    </contour>
  </outline>
</glyph>
<glyph name="nnadeva" format="1">
  <advance width="792"/>
  <unicode hex="0923"/>
  <outline>
    <contour>
      <point x="348" y="605" type="line"/>
      <point x="348" y="313" type="line" smooth="yes"/>
      <point x="348" y="279"/>
      <point x="339" y="214"/>
      <point x="278" y="214" type="curve" smooth="yes"/>
      <point x="237" y="214"/>
      <point x="196" y="219"/>
      <point x="196" y="288" type="curve" smooth="yes"/>
      <point x="196" y="605" type="line"/>
      <point x="62" y="605" type="line"/>
      <point x="62" y="347" type="line" smooth="yes"/>
      <point x="62" y="293"/>
      <point x="85" y="265"/>
      <point x="128" y="219" type="curve" smooth="yes"/>
      <point x="184" y="156"/>
      <point x="239" y="100"/>
      <point x="289" y="100" type="curve" smooth="yes"/>
      <point x="393" y="100"/>
      <point x="484" y="179"/>
      <point x="484" y="284" type="curve" smooth="yes"/>
      <point x="484" y="605" type="line"/>
    </contour>
    <contour>
      <point x="607" y="605" type="line"/>
      <point x="607" y="26" type="line"/>
      <point x="719" y="-37" type="line"/>
      <point x="742" y="-37" type="line"/>
      <point x="742" y="605" type="line"/>
    </contour>
    <contour>
      <point x="-54" y="669" type="line"/>
      <point x="-54" y="647" type="line"/>
      <point x="-7" y="556" type="line"/>
      <point x="915" y="556" type="line"/>
      <point x="915" y="577" type="line"/>
      <point x="866" y="669" type="line"/>
    </contour>
    <contour>
      <point x="678" y="669" type="move" name="top"/>
    </contour>
    <contour>
      <point x="678" y="0" type="move" name="bottom"/>
    </contour>
  </outline>
</glyph>
<glyph name="bhadeva" format="1">
  <advance width="744"/>
  <unicode hex="092D"/>
  <outline>
    <contour>
      <point x="98" y="659"/>
      <point x="47" y="625"/>
      <point x="47" y="555" type="curve" smooth="yes"/>
      <point x="47" y="457"/>
      <point x="144" y="403"/>
      <point x="245" y="367" type="curve"/>
      <point x="253" y="419" type="line"/>
      <point x="189" y="438"/>
      <point x="123" y="468"/>
      <point x="123" y="531" type="curve" smooth="yes"/>
      <point x="123" y="577"/>
      <point x="150" y="597"/>
      <point x="186" y="597" type="curve" smooth="yes"/>
      <point x="221" y="597"/>
      <point x="251" y="562"/>
      <point x="251" y="520" type="curve" smooth="yes"/>
      <point x="251" y="495"/>
      <point x="247" y="445"/>
      <point x="242" y="418" type="curve"/>
      <point x="235" y="389" type="line"/>
      <point x="235" y="218" type="line"/>
      <point x="575" y="218" type="line"/>
      <point x="575" y="293" type="line"/>
      <point x="151" y="293" type="line"/>
      <point x="144" y="215"/>
      <point x="194" y="128"/>
      <point x="255" y="128" type="curve"/>
      <point x="310" y="128"/>
      <point x="323" y="186"/>
      <point x="323" y="233" type="curve"/>
      <point x="323" y="502" type="line" smooth="yes"/>
      <point x="323" y="628"/>
      <point x="227" y="659"/>
      <point x="161" y="659" type="curve" smooth="yes"/>
    </contour>
    <contour>
      <point x="358" y="650" type="line"/>
      <point x="358" y="634" type="line"/>
      <point x="389" y="575" type="line"/>
      <point x="546" y="575" type="line"/>
      <point x="546" y="-1" type="line"/>
      <point x="618" y="-42" type="line"/>
      <point x="634" y="-42" type="line"/>
      <point x="634" y="575" type="line"/>
      <point x="744" y="575" type="line"/>
      <point x="744" y="590" type="line"/>
      <point x="712" y="650" type="line"/>
    </contour>
  </outline>
</glyph>
<glyph name="madeva" format="1">
  <advance width="653"/>
  <unicode hex="092E"/>
  <outline>
    <contour>
      <point x="-56" y="669" type="line"/>
      <point x="-56" y="647" type="line"/>
      <point x="-9" y="556" type="line"/>
      <point x="430" y="556" type="line"/>
      <point x="430" y="26" type="line"/>
      <point x="541" y="-37" type="line"/>
      <point x="563" y="-37" type="line"/>
      <point x="563" y="556" type="line"/>
      <point x="653" y="556" type="line"/>
      <point x="653" y="577" type="line"/>
      <point x="604" y="669" type="line"/>
    </contour>
    <contour>
      <point x="233" y="606" type="line"/>
      <point x="101" y="606" type="line"/>
      <point x="101" y="218" type="line"/>
      <point x="482" y="218" type="line"/>
      <point x="482" y="330" type="line"/>
      <point x="20" y="330" type="line"/>
      <point x="17" y="316"/>
      <point x="15" y="298"/>
      <point x="15" y="278" type="curve" smooth="yes"/>
      <point x="15" y="223"/>
      <point x="51" y="124"/>
      <point x="135" y="123" type="curve" smooth="yes"/>
      <point x="228" y="124"/>
      <point x="233" y="216"/>
      <point x="233" y="268" type="curve"/>
    </contour>
    <contour>
      <point x="498" y="669" type="move" name="top"/>
    </contour>
    <contour>
      <point x="498" y="0" type="move" name="bottom"/>
    </contour>
  </outline>
</glyph>
<glyph name="uni0932" format="1">
  <advance width="815"/>
  <unicode hex="0932"/>
  <outline>
    <contour>
      <point x="-56" y="669" type="line"/>
      <point x="-56" y="647" type="line"/>
      <point x="-9" y="556" type="line"/>
      <point x="815" y="556" type="line"/>
      <point x="815" y="577" type="line"/>
      <point x="765" y="669" type="line"/>
    </contour>
    <contour>
      <point x="591" y="606" type="line"/>
      <point x="591" y="26" type="line"/>
      <point x="703" y="-37" type="line"/>
      <point x="725" y="-37" type="line"/>
      <point x="725" y="606" type="line"/>
    </contour>
    <contour>
      <point x="113" y="474"/>
      <point x="36" y="393"/>
      <point x="36" y="283" type="curve" smooth="yes"/>
      <point x="36" y="130"/>
      <point x="196" y="12"/>
      <point x="300" y="-51" type="curve"/>
      <point x="331" y="-18" type="line"/>
      <point x="233" y="61"/>
      <point x="161" y="151"/>
      <point x="161" y="245" type="curve" smooth="yes"/>
      <point x="161" y="320"/>
      <point x="214" y="365"/>
      <point x="267" y="365" type="curve" smooth="yes"/>
      <point x="295" y="365"/>
      <point x="336" y="358"/>
      <point x="380" y="321" type="curve"/>
      <point x="402" y="362" type="line"/>
      <point x="326" y="440"/>
      <point x="281" y="474"/>
      <point x="210" y="474" type="curve" smooth="yes"/>
    </contour>
    <contour>
      <point x="416" y="454"/>
      <point x="329" y="347"/>
      <point x="307" y="234" type="curve"/>
      <point x="422" y="165" type="line"/>
      <point x="440" y="246"/>
      <point x="502" y="362"/>
      <point x="575" y="362" type="curve" smooth="yes"/>
      <point x="593" y="362"/>
      <point x="607" y="352"/>
      <point x="617" y="342" type="curve"/>
      <point x="618" y="379" type="line"/>
      <point x="596" y="413"/>
      <point x="564" y="454"/>
      <point x="528" y="454" type="curve" smooth="yes"/>
    </contour>
    <contour>
      <point x="659" y="669" type="move" name="top"/>
    </contour>
    <contour>
      <point x="659" y="0" type="move" name="bottom"/>
    </contour>
  </outline>
</glyph>
<glyph name="vadeva" format="1">
  <advance width="665"/>
  <unicode hex="0935"/>
  <outline>
    <contour>
      <point x="-56" y="669" type="line"/>
      <point x="-56" y="647" type="line"/>
      <point x="-9" y="556" type="line"/>
      <point x="441" y="556" type="line"/>
      <point x="441" y="375" type="line"/>
      <point x="418" y="375" type="line"/>
      <point x="441" y="337" type="line"/>
      <point x="441" y="184" type="line"/>
      <point x="429" y="152" type="line"/>
      <point x="443" y="149" type="line"/>
      <point x="434" y="29" type="line"/>
      <point x="553" y="-37" type="line"/>
      <point x="575" y="-37" type="line"/>
      <point x="575" y="556" type="line"/>
      <point x="665" y="556" type="line"/>
      <point x="665" y="577" type="line"/>
      <point x="616" y="669" type="line"/>
    </contour>
    <contour>
      <point x="136" y="501"/>
      <point x="45" y="422"/>
      <point x="45" y="283" type="curve" smooth="yes"/>
      <point x="45" y="151"/>
      <point x="155" y="81"/>
      <point x="248" y="81" type="curve" smooth="yes"/>
      <point x="338" y="81"/>
      <point x="396" y="120"/>
      <point x="460" y="165" type="curve"/>
      <point x="460" y="320" type="line"/>
      <point x="412" y="259"/>
      <point x="295" y="186"/>
      <point x="205" y="186" type="curve" smooth="yes"/>
      <point x="131" y="186"/>
      <point x="93" y="220"/>
      <point x="93" y="260" type="curve" smooth="yes"/>
      <point x="93" y="314"/>
      <point x="179" y="382"/>
      <point x="290" y="382" type="curve" smooth="yes"/>
      <point x="352" y="382"/>
      <point x="427" y="325"/>
      <point x="458" y="279" type="curve"/>
      <point x="458" y="352" type="line"/>
      <point x="428" y="392"/>
      <point x="342" y="501"/>
      <point x="241" y="501" type="curve" smooth="yes"/>
    </contour>
    <contour>
      <point x="509" y="669" type="move" name="top"/>
    </contour>
    <contour>
      <point x="509" y="0" type="move" name="bottom"/>
    </contour>
  </outline>
</glyph>
<glyph name="shadeva" format="1">
  <advance width="743"/>
  <unicode hex="0936"/>
  <outline>
    <contour>
      <point x="151" y="632"/>
      <point x="104" y="594"/>
      <point x="104" y="531" type="curve" smooth="yes"/>
      <point x="104" y="434"/>
      <point x="196" y="352"/>
      <point x="287" y="316" type="curve"/>
      <point x="315" y="361" type="line"/>
      <point x="253" y="383"/>
      <point x="181" y="443"/>
      <point x="181" y="507" type="curve" smooth="yes"/>
      <point x="181" y="552"/>
      <point x="209" y="574"/>
      <point x="245" y="574" type="curve" smooth="yes"/>
      <point x="305" y="574"/>
      <point x="340" y="525"/>
      <point x="340" y="477" type="curve" smooth="yes"/>
      <point x="340" y="387"/>
      <point x="272" y="268"/>
      <point x="173" y="231" type="curve"/>
      <point x="183" y="193" type="line"/>
      <point x="168" y="313" type="line"/>
      <point x="161" y="316"/>
      <point x="152" y="318"/>
      <point x="139" y="318" type="curve" smooth="yes"/>
      <point x="99" y="318"/>
      <point x="51" y="292"/>
      <point x="51" y="244" type="curve" smooth="yes"/>
      <point x="51" y="199"/>
      <point x="136" y="161"/>
      <point x="167" y="161" type="curve"/>
      <point x="292" y="161"/>
      <point x="412" y="317"/>
      <point x="412" y="455" type="curve" smooth="yes"/>
      <point x="412" y="555"/>
      <point x="343" y="632"/>
      <point x="204" y="632" type="curve"/>
    </contour>
    <contour>
      <point x="340" y="-58" type="line"/>
      <point x="394" y="-17" type="line"/>
      <point x="205" y="172" type="line"/>
      <point x="133" y="180" type="line"/>
    </contour>
    <contour>
      <point x="545" y="605" type="line"/>
      <point x="545" y="-1" type="line"/>
      <point x="617" y="-42" type="line"/>
      <point x="633" y="-42" type="line"/>
      <point x="633" y="605" type="line"/>
    </contour>
    <contour>
      <point x="-31" y="650" type="line"/>
      <point x="-31" y="634" type="line"/>
      <point x="0" y="575" type="line"/>
      <point x="743" y="575" type="line"/>
      <point x="743" y="590" type="line"/>
      <point x="711" y="650" type="line"/>
    </contour>
  </outline>
</glyph>
<glyph name="hadeva" format="1">
  <advance width="573"/>
  <unicode hex="0939"/>
  <outline>
    <contour>
      <point x="-31" y="650" type="line"/>
      <point x="-31" y="634" type="line"/>
      <point x="0" y="575" type="line"/>
      <point x="361" y="575" type="line"/>
      <point x="361" y="483" type="line"/>
      <point x="161" y="483" type="line" smooth="yes"/>
      <point x="99" y="483"/>
      <point x="63" y="460"/>
      <point x="63" y="386" type="curve" smooth="yes"/>
      <point x="63" y="331"/>
      <point x="105" y="270"/>
      <point x="141" y="230" type="curve"/>
      <point x="179" y="265" type="line"/>
      <point x="152" y="290"/>
      <point x="126" y="325"/>
      <point x="126" y="358" type="curve" smooth="yes"/>
      <point x="126" y="385"/>
      <point x="141" y="404"/>
      <point x="184" y="404" type="curve" smooth="yes"/>
      <point x="449" y="404" type="line"/>
      <point x="449" y="575" type="line"/>
      <point x="573" y="575" type="line"/>
      <point x="573" y="590" type="line"/>
      <point x="541" y="650" type="line"/>
    </contour>
    <contour>
      <point x="183" y="310"/>
      <point x="96" y="240"/>
      <point x="96" y="152" type="curve" smooth="yes"/>
      <point x="96" y="16"/>
      <point x="255" y="-78"/>
      <point x="395" y="-150" type="curve"/>
      <point x="418" y="-117" type="line"/>
      <point x="259" y="-28"/>
      <point x="184" y="31"/>
      <point x="184" y="124" type="curve" smooth="yes"/>
      <point x="184" y="199"/>
      <point x="257" y="256"/>
      <point x="325" y="256" type="curve" smooth="yes"/>
      <point x="388" y="256"/>
      <point x="429" y="218"/>
      <point x="429" y="185" type="curve" smooth="yes"/>
      <point x="429" y="135"/>
      <point x="375" y="94"/>
      <point x="322" y="64" type="curve"/>
      <point x="322" y="62" type="line"/>
      <point x="391" y="2" type="line"/>
      <point x="446" y="30"/>
      <point x="505" y="88"/>
      <point x="505" y="148" type="curve" smooth="yes"/>
      <point x="505" y="207"/>
      <point x="408" y="310"/>
      <point x="298" y="310" type="curve" smooth="yes"/>
    </contour>
  </outline>
</glyph>
<glyph name="uni093F" format="1">
  <advance width="307"/>
  <unicode hex="093F"/>
  <outline>
    <contour>
      <point x="119" y="998"/>
      <point x="34" y="932"/>
      <point x="34" y="842" type="curve" smooth="yes"/>
      <point x="34" y="771"/>
      <point x="83" y="696"/>
      <point x="122" y="643" type="curve"/>
      <point x="177" y="643" type="line"/>
      <point x="160" y="664"/>
      <point x="128" y="735"/>
      <point x="128" y="795" type="curve" smooth="yes"/>
      <point x="128" y="878"/>
      <point x="195" y="919"/>
      <point x="280" y="919" type="curve" smooth="yes"/>
      <point x="406" y="919"/>
      <point x="553" y="804"/>
      <point x="695" y="684" type="curve"/>
      <point x="722" y="719" type="line"/>
      <point x="587" y="840"/>
      <point x="399" y="998"/>
      <point x="244" y="998" type="curve" smooth="yes"/>
    </contour>
    <contour>
      <point x="-31" y="650" type="line"/>
      <point x="-31" y="634" type="line"/>
      <point x="0" y="575" type="line"/>
      <point x="109" y="575" type="line"/>
      <point x="109" y="-1" type="line"/>
      <point x="182" y="-42" type="line"/>
      <point x="198" y="-42" type="line"/>
      <point x="198" y="575" type="line"/>
      <point x="307" y="575" type="line"/>
      <point x="307" y="590" type="line"/>
      <point x="275" y="650" type="line"/>
    </contour>
  </outline>
</glyph>
<glyph name="uni0940" format="1">
  <advance width="307"/>
  <unicode hex="0940"/>
  <outline>
    <contour>
      <point x="-31" y="650" type="line"/>
      <point x="-31" y="634" type="line"/>
      <point x="0" y="575" type="line"/>
      <point x="109" y="575" type="line"/>
      <point x="109" y="-1" type="line"/>
      <point x="182" y="-42" type="line"/>
      <point x="198" y="-42" type="line"/>
      <point x="198" y="575" type="line"/>
      <point x="307" y="575" type="line"/>
      <point x="307" y="590" type="line"/>
      <point x="275" y="650" type="line"/>
    </contour>
    <contour>
      <point x="-225" y="1018"/>
      <point x="-287" y="952"/>
      <point x="-287" y="880" type="curve" smooth="yes"/>
      <point x="-287" y="800"/>
      <point x="-231" y="732"/>
      <point x="-184" y="695" type="curve"/>
      <point x="-137" y="718" type="line"/>
      <point x="-137" y="720" type="line"/>
      <point x="-159" y="744"/>
      <point x="-188" y="795"/>
      <point x="-188" y="843" type="curve" smooth="yes"/>
      <point x="-188" y="888"/>
      <point x="-159" y="939"/>
      <point x="-102" y="939" type="curve" smooth="yes"/>
      <point x="-1" y="939"/>
      <point x="81" y="746"/>
      <point x="126" y="638" type="curve"/>
      <point x="178" y="637" type="line"/>
      <point x="119" y="781"/>
      <point x="34" y="1018"/>
      <point x="-128" y="1018" type="curve" smooth="yes"/>
    </contour>
  </outline>
</glyph>
<glyph name="ghhadeva" format="1">
  <advance width="662"/>
  <unicode hex="095A"/>
  <outline>
    <component base="gadeva"/>
    <component base="nuktadeva" xOffset="408" yOffset="194"/>
    <contour>
      <point x="473" y="650" type="move" name="top"/>
    </contour>
    <contour>
      <point x="473" y="0" type="move" name="bottom"/>
    </contour>
  </outline>
</glyph>
<glyph name="zadeva" format="1">
  <advance width="740"/>
  <unicode hex="095B"/>
  <outline>
    <component base="jadeva"/>
    <component base="nuktadeva" xOffset="572" yOffset="83"/>
    <contour>
      <point x="586" y="650" type="move" name="top"/>
    </contour>
    <contour>
      <point x="586" y="0" type="move" name="bottom"/>
    </contour>
  </outline>
</glyph>
<glyph name="dddhadeva" format="1">
  <advance width="624"/>
  <unicode hex="095C"/>
  <outline>
    <component base="ddadeva"/>
    <component base="nuktadeva" xOffset="431"/>
    <contour>
      <point x="438" y="650" type="move" name="top"/>
    </contour>
    <contour>
      <point x="343" y="0" type="move" name="bottom"/>
    </contour>
  </outline>
</glyph>
<glyph name="fadeva" format="1">
  <advance width="862"/>
  <unicode hex="095E"/>
  <outline>
    <component base="uni092B"/>
    <component base="nuktadeva" xOffset="347" yOffset="189"/>
    <contour>
      <point x="435" y="650" type="move" name="top"/>
    </contour>
    <contour>
      <point x="435" y="0" type="move" name="bottom"/>
    </contour>
  </outline>
</glyph>
<glyph name="uni091A094D" format="1">
  <advance width="393"/>
  <outline>
    <contour>
      <point x="167" y="400" type="line"/>
      <point x="167" y="361" type="line"/>
      <point x="146" y="335"/>
      <point x="127" y="300"/>
      <point x="127" y="257" type="curve" smooth="yes"/>
      <point x="127" y="208"/>
      <point x="160" y="164"/>
      <point x="186" y="138" type="curve" smooth="yes"/>
      <point x="214" y="110"/>
      <point x="258" y="91"/>
      <point x="309" y="91" type="curve" smooth="yes"/>
      <point x="386" y="91"/>
      <point x="462" y="136"/>
      <point x="523" y="193" type="curve"/>
      <point x="482" y="283" type="line"/>
      <point x="447" y="227"/>
      <point x="347" y="143"/>
      <point x="277" y="143" type="curve" smooth="yes"/>
      <point x="234" y="143"/>
      <point x="194" y="188"/>
      <point x="194" y="232" type="curve" smooth="yes"/>
      <point x="194" y="297"/>
      <point x="238" y="357"/>
      <point x="318" y="358" type="curve"/>
      <point x="318" y="400" type="line"/>
    </contour>
    <contour>
      <point x="32" y="431" type="line"/>
      <point x="32" y="416" type="line"/>
      <point x="64" y="356" type="line"/>
      <point x="410" y="356" type="line"/>
      <point x="410" y="372" type="line"/>
      <point x="379" y="431" type="line"/>
    </contour>
    <contour>
      <point x="-31" y="650" type="line"/>
      <point x="-31" y="634" type="line"/>
      <point x="0" y="575" type="line"/>
      <point x="426" y="575" type="line"/>
      <point x="426" y="590" type="line"/>
      <point x="393" y="650" type="line"/>
    </contour>
  </outline>
</glyph>
<glyph name="chadeva.001" format="1">
  <advance width="767"/>
  <outline>
    <contour>
      <point x="473" y="484"/>
      <point x="407" y="460"/>
      <point x="407" y="379" type="curve" smooth="yes"/>
      <point x="407" y="280"/>
      <point x="502" y="199"/>
      <point x="588" y="165" type="curve"/>
      <point x="618" y="209" type="line"/>
      <point x="559" y="227"/>
      <point x="483" y="287"/>
      <point x="483" y="354" type="curve" smooth="yes"/>
      <point x="483" y="400"/>
      <point x="510" y="422"/>
      <point x="547" y="422" type="curve" smooth="yes"/>
      <point x="589" y="422"/>
      <point x="641" y="398"/>
      <point x="641" y="334" type="curve" smooth="yes"/>
      <point x="641" y="178"/>
      <point x="483" y="45"/>
      <point x="307" y="45" type="curve" smooth="yes"/>
      <point x="251" y="45"/>
      <point x="206" y="89"/>
      <point x="206" y="122" type="curve" smooth="yes"/>
      <point x="206" y="159"/>
      <point x="233" y="215"/>
      <point x="294" y="215" type="curve" smooth="yes"/>
      <point x="317" y="215"/>
      <point x="345" y="212"/>
      <point x="365" y="207" type="curve"/>
      <point x="375" y="233" type="line"/>
      <point x="356" y="278" type="line"/>
      <point x="333" y="283"/>
      <point x="302" y="285"/>
      <point x="268" y="285" type="curve" smooth="yes"/>
      <point x="194" y="285"/>
      <point x="119" y="222"/>
      <point x="119" y="148" type="curve" smooth="yes"/>
      <point x="119" y="97"/>
      <point x="254" y="-27"/>
      <point x="358" y="-27" type="curve" smooth="yes"/>
      <point x="536" y="-27"/>
      <point x="713" y="133"/>
      <point x="713" y="303" type="curve" smooth="yes"/>
      <point x="713" y="444"/>
      <point x="584" y="484"/>
      <point x="526" y="484" type="curve"/>
    </contour>
    <contour>
      <point x="117" y="474"/>
      <point x="59" y="416"/>
      <point x="59" y="358" type="curve" smooth="yes"/>
      <point x="59" y="309"/>
      <point x="106" y="276"/>
      <point x="165" y="234" type="curve"/>
      <point x="216" y="274" type="line"/>
      <point x="185" y="269"/>
      <point x="134" y="297"/>
      <point x="134" y="335" type="curve" smooth="yes"/>
      <point x="134" y="383"/>
      <point x="173" y="408"/>
      <point x="212" y="408" type="curve" smooth="yes"/>
      <point x="242" y="408"/>
      <point x="286" y="397"/>
      <point x="317" y="380" type="curve"/>
      <point x="284" y="458" type="line"/>
      <point x="269" y="465"/>
      <point x="234" y="474"/>
      <point x="195" y="474" type="curve" smooth="yes"/>
    </contour>
    <contour>
      <point x="-31" y="650" type="line"/>
      <point x="-31" y="634" type="line"/>
      <point x="0" y="575" type="line"/>
      <point x="767" y="575" type="line"/>
      <point x="767" y="590" type="line"/>
      <point x="735" y="650" type="line"/>
    </contour>
    <contour>
      <point x="513" y="595" type="line"/>
      <point x="513" y="453" type="line"/>
      <point x="601" y="437" type="line"/>
      <point x="601" y="595" type="line"/>
    </contour>
  </outline>
</glyph>
<glyph name="uni0926094D0926" format="1">
  <advance width="647"/>
  <outline>
    <contour>
      <point x="-31" y="650" type="line"/>
      <point x="-31" y="634" type="line"/>
      <point x="0" y="575" type="line"/>
      <point x="347" y="575" type="line"/>
      <point x="347" y="461" type="line"/>
      <point x="193" y="461" type="line" smooth="yes"/>
      <point x="99" y="461"/>
      <point x="62" y="427"/>
      <point x="62" y="360" type="curve" smooth="yes"/>
      <point x="62" y="300"/>
      <point x="113" y="273"/>
      <point x="190" y="241" type="curve"/>
      <point x="193" y="251" type="line"/>
      <point x="157" y="235"/>
      <point x="99" y="193"/>
      <point x="99" y="136" type="curve" smooth="yes"/>
      <point x="99" y="56"/>
      <point x="233" y="-35"/>
      <point x="323" y="-35" type="curve" smooth="yes"/>
      <point x="488" y="-35"/>
      <point x="587" y="37"/>
      <point x="587" y="119" type="curve" smooth="yes"/>
      <point x="587" y="160"/>
      <point x="548" y="197"/>
      <point x="483" y="197" type="curve" smooth="yes"/>
      <point x="463" y="197"/>
      <point x="431" y="192"/>
      <point x="404" y="167" type="curve"/>
      <point x="446" y="67" type="line"/>
      <point x="414" y="50"/>
      <point x="368" y="44"/>
      <point x="323" y="44" type="curve" smooth="yes"/>
      <point x="232" y="44"/>
      <point x="176" y="64"/>
      <point x="178" y="112" type="curve" smooth="yes"/>
      <point x="180" y="156"/>
      <point x="206" y="197"/>
      <point x="293" y="201" type="curve" smooth="yes"/>
      <point x="317" y="202"/>
      <point x="340" y="199"/>
      <point x="365" y="194" type="curve"/>
      <point x="375" y="219" type="line"/>
      <point x="368" y="237"/>
      <point x="359" y="258"/>
      <point x="359" y="258" type="curve"/>
      <point x="337" y="269"/>
      <point x="295" y="272"/>
      <point x="266" y="272" type="curve" smooth="yes"/>
      <point x="260" y="272"/>
      <point x="256" y="271"/>
      <point x="250" y="271" type="curve"/>
      <point x="212" y="272"/>
      <point x="144" y="300"/>
      <point x="144" y="337" type="curve" smooth="yes"/>
      <point x="144" y="372"/>
      <point x="176" y="385"/>
      <point x="227" y="385" type="curve" smooth="yes"/>
      <point x="436" y="385" type="line"/>
      <point x="436" y="575" type="line"/>
      <point x="647" y="575" type="line"/>
      <point x="647" y="590" type="line"/>
      <point x="615" y="650" type="line"/>
    </contour>
    <contour>
      <point x="476" y="-3" type="line"/>
      <point x="551" y="-181" type="line"/>
      <point x="610" y="-151" type="line"/>
      <point x="516" y="14" type="line"/>
    </contour>
  </outline>
</glyph>
<glyph name="uni0939094D" format="1">
  <advance width="490"/>
  <outline>
    <contour>
      <point x="183" y="310"/>
      <point x="96" y="240"/>
      <point x="96" y="152" type="curve" smooth="yes"/>
      <point x="96" y="16"/>
      <point x="255" y="-78"/>
      <point x="395" y="-150" type="curve"/>
      <point x="418" y="-117" type="line"/>
      <point x="259" y="-28"/>
      <point x="184" y="31"/>
      <point x="184" y="124" type="curve" smooth="yes"/>
      <point x="184" y="183"/>
      <point x="257" y="231"/>
      <point x="325" y="231" type="curve"/>
      <point x="298" y="310" type="line"/>
    </contour>
    <contour>
      <point x="298" y="310" type="line"/>
      <point x="298" y="231" type="line"/>
      <point x="580" y="231" type="line"/>
      <point x="580" y="310" type="line"/>
    </contour>
    <contour>
      <point x="-31" y="650" type="line"/>
      <point x="-31" y="634" type="line"/>
      <point x="0" y="575" type="line"/>
      <point x="361" y="575" type="line"/>
      <point x="361" y="483" type="line"/>
      <point x="161" y="483" type="line" smooth="yes"/>
      <point x="99" y="483"/>
      <point x="63" y="460"/>
      <point x="63" y="386" type="curve" smooth="yes"/>
      <point x="63" y="331"/>
      <point x="105" y="270"/>
      <point x="141" y="230" type="curve"/>
      <point x="179" y="265" type="line"/>
      <point x="152" y="290"/>
      <point x="126" y="325"/>
      <point x="126" y="358" type="curve" smooth="yes"/>
      <point x="126" y="385"/>
      <point x="141" y="404"/>
      <point x="184" y="404" type="curve" smooth="yes"/>
      <point x="449" y="404" type="line"/>
      <point x="449" y="575" type="line"/>
      <point x="522" y="575" type="line"/>
      <point x="522" y="590" type="line"/>
      <point x="490" y="650" type="line"/>
    </contour>
  </outline>
</glyph>
<glyph name="uni091C094D091E" format="1">
  <advance width="693"/>
  <outline>
    <contour>
      <point x="106" y="460" type="line"/>
      <point x="98" y="423" type="line"/>
      <point x="215" y="355"/>
      <point x="308" y="280"/>
      <point x="308" y="210" type="curve" smooth="yes"/>
      <point x="308" y="156"/>
      <point x="252" y="110"/>
      <point x="156" y="110" type="curve"/>
      <point x="169" y="185" type="line"/>
      <point x="161" y="188"/>
      <point x="147" y="190"/>
      <point x="136" y="190" type="curve" smooth="yes"/>
      <point x="101" y="190"/>
      <point x="42" y="174"/>
      <point x="42" y="119" type="curve" smooth="yes"/>
      <point x="42" y="60"/>
      <point x="144" y="35"/>
      <point x="203" y="35" type="curve" smooth="yes"/>
      <point x="327" y="35"/>
      <point x="395" y="122"/>
      <point x="395" y="184" type="curve" smooth="yes"/>
      <point x="395" y="269"/>
      <point x="332" y="318"/>
      <point x="238" y="383" type="curve"/>
      <point x="220" y="370" type="line"/>
      <point x="238" y="363" type="line"/>
      <point x="238" y="385" type="line"/>
      <point x="536" y="385" type="line"/>
      <point x="536" y="460" type="line"/>
    </contour>
    <contour>
      <point x="275" y="-130" type="line"/>
      <point x="321" y="-96" type="line"/>
      <point x="151" y="63" type="line"/>
      <point x="101" y="70" type="line"/>
    </contour>
    <contour>
      <point x="496" y="605" type="line"/>
      <point x="496" y="-1" type="line"/>
      <point x="568" y="-42" type="line"/>
      <point x="584" y="-42" type="line"/>
      <point x="584" y="605" type="line"/>
    </contour>
    <contour>
      <point x="-31" y="650" type="line"/>
      <point x="-31" y="634" type="line"/>
      <point x="0" y="575" type="line"/>
      <point x="693" y="575" type="line"/>
      <point x="693" y="590" type="line"/>
      <point x="662" y="650" type="line"/>
    </contour>
  </outline>
</glyph>
<glyph name="uni0915094D0915" format="1">
  <advance width="851"/>
  <outline>
    <contour>
      <point x="132" y="519"/>
      <point x="71" y="433"/>
      <point x="71" y="367" type="curve" smooth="yes"/>
      <point x="71" y="266"/>
      <point x="157" y="204"/>
      <point x="241" y="204" type="curve" smooth="yes"/>
      <point x="304" y="204"/>
      <point x="359" y="252"/>
      <point x="412" y="277" type="curve"/>
      <point x="475" y="318" type="line"/>
      <point x="528" y="371"/>
      <point x="587" y="416"/>
      <point x="648" y="416" type="curve" smooth="yes"/>
      <point x="698" y="416"/>
      <point x="711" y="384"/>
      <point x="711" y="354" type="curve" smooth="yes"/>
      <point x="711" y="334"/>
      <point x="698" y="305"/>
      <point x="688" y="294" type="curve"/>
      <point x="753" y="226" type="line"/>
      <point x="768" y="255"/>
      <point x="780" y="280"/>
      <point x="780" y="311" type="curve" smooth="yes"/>
      <point x="780" y="362"/>
      <point x="698" y="490"/>
      <point x="622" y="490" type="curve" smooth="yes"/>
      <point x="563" y="490"/>
      <point x="519" y="449"/>
      <point x="479" y="413" type="curve"/>
      <point x="412" y="367" type="line"/>
      <point x="371" y="326"/>
      <point x="280" y="272"/>
      <point x="207" y="272" type="curve" smooth="yes"/>
      <point x="168" y="272"/>
      <point x="120" y="300"/>
      <point x="120" y="344" type="curve" smooth="yes"/>
      <point x="120" y="407"/>
      <point x="193" y="439"/>
      <point x="252" y="439" type="curve" smooth="yes"/>
      <point x="321" y="439"/>
      <point x="387" y="387"/>
      <point x="411" y="344" type="curve"/>
      <point x="413" y="394" type="line"/>
      <point x="371" y="449"/>
      <point x="309" y="519"/>
      <point x="218" y="519" type="curve" smooth="yes"/>
    </contour>
    <contour>
      <point x="554" y="286"/>
      <point x="508" y="245"/>
      <point x="474" y="210" type="curve"/>
      <point x="414" y="184" type="line"/>
      <point x="372" y="145"/>
      <point x="277" y="96"/>
      <point x="217" y="96" type="curve" smooth="yes"/>
      <point x="178" y="96"/>
      <point x="147" y="114"/>
      <point x="147" y="148" type="curve" smooth="yes"/>
      <point x="147" y="180"/>
      <point x="166" y="204"/>
      <point x="193" y="221" type="curve"/>
      <point x="127" y="259" type="line"/>
      <point x="105" y="230"/>
      <point x="90" y="199"/>
      <point x="90" y="172" type="curve" smooth="yes"/>
      <point x="90" y="103"/>
      <point x="170" y="28"/>
      <point x="251" y="28" type="curve" smooth="yes"/>
      <point x="313" y="28"/>
      <point x="363" y="63"/>
      <point x="413" y="94" type="curve"/>
      <point x="480" y="127" type="line"/>
      <point x="521" y="169"/>
      <point x="578" y="212"/>
      <point x="638" y="212" type="curve" smooth="yes"/>
      <point x="689" y="212"/>
      <point x="701" y="180"/>
      <point x="701" y="150" type="curve" smooth="yes"/>
      <point x="701" y="110"/>
      <point x="664" y="63"/>
      <point x="635" y="32" type="curve"/>
      <point x="705" y="-39" type="line"/>
      <point x="737" y="11"/>
      <point x="770" y="51"/>
      <point x="770" y="106" type="curve" smooth="yes"/>
      <point x="770" y="167"/>
      <point x="679" y="286"/>
      <point x="613" y="286" type="curve" smooth="yes"/>
    </contour>
    <contour>
      <point x="401" y="605" type="line"/>
      <point x="401" y="412" type="line"/>
      <point x="379" y="412" type="line"/>
      <point x="401" y="379" type="line"/>
      <point x="401" y="337" type="line"/>
      <point x="381" y="279" type="line"/>
      <point x="401" y="269" type="line"/>
      <point x="401" y="133" type="line"/>
      <point x="384" y="95" type="line"/>
      <point x="402" y="83" type="line"/>
      <point x="399" y="0" type="line"/>
      <point x="473" y="-42" type="line"/>
      <point x="489" y="-42" type="line"/>
      <point x="489" y="606" type="line"/>
    </contour>
    <contour>
      <point x="-31" y="650" type="line"/>
      <point x="-31" y="634" type="line"/>
      <point x="0" y="575" type="line"/>
      <point x="851" y="575" type="line"/>
      <point x="851" y="590" type="line"/>
      <point x="820" y="650" type="line"/>
    </contour>
    <contour>
      <point x="445" y="650" type="move" name="top"/>
    </contour>
    <contour>
      <point x="445" y="0" type="move" name="bottom"/>
    </contour>
  </outline>
</glyph>
<glyph name="uni0915094D0930" format="1">
  <advance width="851"/>
  <outline>
    <contour>
      <point x="-31" y="650" type="line"/>
      <point x="-31" y="634" type="line"/>
      <point x="0" y="575" type="line"/>
      <point x="401" y="575" type="line"/>
      <point x="401" y="228" type="line"/>
      <point x="389" y="198" type="line"/>
      <point x="403" y="191" type="line"/>
      <point x="399" y="0" type="line"/>
      <point x="473" y="-42" type="line"/>
      <point x="489" y="-42" type="line"/>
      <point x="489" y="575" type="line"/>
      <point x="851" y="575" type="line"/>
      <point x="851" y="590" type="line"/>
      <point x="820" y="650" type="line"/>
    </contour>
    <contour>
      <point x="250" y="148" type="line"/>
      <point x="49" y="10" type="line"/>
      <point x="111" y="-58" type="line"/>
      <point x="409" y="199" type="line"/>
    </contour>
    <contour>
      <point x="114" y="464"/>
      <point x="54" y="378"/>
      <point x="54" y="293" type="curve" smooth="yes"/>
      <point x="54" y="185"/>
      <point x="134" y="121"/>
      <point x="233" y="121" type="curve" smooth="yes"/>
      <point x="316" y="121"/>
      <point x="363" y="154"/>
      <point x="423" y="213" type="curve"/>
      <point x="471" y="249" type="line"/>
      <point x="527" y="303"/>
      <point x="592" y="360"/>
      <point x="658" y="360" type="curve" smooth="yes"/>
      <point x="709" y="360"/>
      <point x="749" y="318"/>
      <point x="749" y="262" type="curve" smooth="yes"/>
      <point x="749" y="203"/>
      <point x="692" y="128"/>
      <point x="665" y="98" type="curve"/>
      <point x="733" y="26" type="line"/>
      <point x="766" y="76"/>
      <point x="799" y="181"/>
      <point x="799" y="237" type="curve" smooth="yes"/>
      <point x="799" y="352"/>
      <point x="746" y="434"/>
      <point x="632" y="434" type="curve" smooth="yes"/>
      <point x="571" y="434"/>
      <point x="507" y="385"/>
      <point x="464" y="340" type="curve" smooth="yes"/>
      <point x="423" y="305" type="line"/>
      <point x="377" y="253"/>
      <point x="294" y="188"/>
      <point x="199" y="188" type="curve" smooth="yes"/>
      <point x="155" y="188"/>
      <point x="102" y="217"/>
      <point x="102" y="269" type="curve" smooth="yes"/>
      <point x="102" y="342"/>
      <point x="181" y="374"/>
      <point x="243" y="374" type="curve" smooth="yes"/>
      <point x="312" y="374"/>
      <point x="382" y="319"/>
      <point x="408" y="276" type="curve"/>
      <point x="414" y="315" type="line"/>
      <point x="375" y="383"/>
      <point x="321" y="464"/>
      <point x="210" y="464" type="curve" smooth="yes"/>
    </contour>
  </outline>
</glyph>
<glyph name="uni0915094D0937" format="1">
  <advance width="826"/>
  <outline>
    <contour>
      <point x="162" y="667"/>
      <point x="77" y="616"/>
      <point x="77" y="520" type="curve" smooth="yes"/>
      <point x="77" y="461"/>
      <point x="142" y="403"/>
      <point x="228" y="361" type="curve"/>
      <point x="266" y="383" type="line"/>
      <point x="208" y="409"/>
      <point x="166" y="465"/>
      <point x="166" y="496" type="curve" smooth="yes"/>
      <point x="166" y="559"/>
      <point x="225" y="587"/>
      <point x="279" y="587" type="curve" smooth="yes"/>
      <point x="313" y="587"/>
      <point x="364" y="547"/>
      <point x="364" y="512" type="curve" smooth="yes"/>
      <point x="364" y="375"/>
      <point x="53" y="342"/>
      <point x="53" y="226" type="curve" smooth="yes"/>
      <point x="53" y="113"/>
      <point x="212" y="8"/>
      <point x="284" y="8" type="curve" smooth="yes"/>
      <point x="360" y="8"/>
      <point x="448" y="41"/>
      <point x="448" y="121" type="curve" smooth="yes"/>
      <point x="448" y="163"/>
      <point x="422" y="194"/>
      <point x="367" y="194" type="curve" smooth="yes"/>
      <point x="352" y="194"/>
      <point x="330" y="190"/>
      <point x="311" y="179" type="curve"/>
      <point x="337" y="61" type="line"/>
      <point x="335" y="95" type="line"/>
      <point x="305" y="83"/>
      <point x="268" y="74"/>
      <point x="237" y="74" type="curve" smooth="yes"/>
      <point x="181" y="74"/>
      <point x="142" y="127"/>
      <point x="142" y="178" type="curve" smooth="yes"/>
      <point x="142" y="307"/>
      <point x="428" y="287"/>
      <point x="428" y="487" type="curve" smooth="yes"/>
      <point x="428" y="561"/>
      <point x="312" y="667"/>
      <point x="248" y="667" type="curve" smooth="yes"/>
    </contour>
    <contour>
      <point x="351" y="27" type="line"/>
      <point x="419" y="-129" type="line"/>
      <point x="468" y="-104" type="line"/>
      <point x="386" y="39" type="line"/>
    </contour>
    <contour>
      <point x="585" y="348"/>
      <point x="524" y="331"/>
      <point x="469" y="331" type="curve" smooth="yes"/>
      <point x="414" y="331"/>
      <point x="369" y="335"/>
      <point x="336" y="345" type="curve"/>
      <point x="303" y="324" type="line"/>
      <point x="363" y="280"/>
      <point x="421" y="255"/>
      <point x="509" y="255" type="curve" smooth="yes"/>
      <point x="543" y="255"/>
      <point x="598" y="265"/>
      <point x="634" y="281" type="curve"/>
      <point x="635" y="382" type="line"/>
    </contour>
    <contour>
      <point x="629" y="615" type="line"/>
      <point x="629" y="318" type="line"/>
      <point x="587" y="278" type="line"/>
      <point x="629" y="278" type="line"/>
      <point x="629" y="-1" type="line"/>
      <point x="701" y="-42" type="line"/>
      <point x="716" y="-42" type="line"/>
      <point x="716" y="615" type="line"/>
    </contour>
    <contour>
      <point x="445" y="650" type="line"/>
      <point x="445" y="634" type="line"/>
      <point x="476" y="575" type="line"/>
      <point x="826" y="575" type="line"/>
      <point x="826" y="590" type="line"/>
      <point x="794" y="650" type="line"/>
    </contour>
    <contour>
      <point x="672" y="650" type="move" name="top"/>
    </contour>
    <contour>
      <point x="672" y="0" type="move" name="bottom"/>
    </contour>
  </outline>
</glyph>
<glyph name="uni0915094D0924" format="1">
  <advance width="961"/>
  <outline>
    <contour>
      <point x="678" y="434"/>
      <point x="613" y="379"/>
      <point x="589" y="354" type="curve"/>
      <point x="587" y="252" type="line"/>
      <point x="631" y="297"/>
      <point x="698" y="360"/>
      <point x="768" y="360" type="curve" smooth="yes"/>
      <point x="819" y="360"/>
      <point x="859" y="318"/>
      <point x="859" y="262" type="curve" smooth="yes"/>
      <point x="859" y="203"/>
      <point x="802" y="128"/>
      <point x="775" y="98" type="curve"/>
      <point x="843" y="26" type="line"/>
      <point x="876" y="76"/>
      <point x="910" y="181"/>
      <point x="910" y="237" type="curve" smooth="yes"/>
      <point x="910" y="352"/>
      <point x="856" y="434"/>
      <point x="743" y="434" type="curve" smooth="yes"/>
    </contour>
    <contour>
      <point x="151" y="329"/>
      <point x="140" y="296"/>
      <point x="140" y="266" type="curve" smooth="yes"/>
      <point x="140" y="144"/>
      <point x="243" y="52"/>
      <point x="347" y="-25" type="curve"/>
      <point x="376" y="6" type="line"/>
      <point x="274" y="80"/>
      <point x="219" y="158"/>
      <point x="219" y="234" type="curve" smooth="yes"/>
      <point x="219" y="290"/>
      <point x="265" y="352"/>
      <point x="332" y="352" type="curve"/>
      <point x="177" y="358" type="line"/>
    </contour>
    <contour>
      <point x="20" y="427" type="line"/>
      <point x="20" y="412" type="line"/>
      <point x="51" y="352" type="line"/>
      <point x="542" y="352" type="line"/>
      <point x="542" y="427" type="line"/>
    </contour>
    <contour>
      <point x="512" y="615" type="line"/>
      <point x="512" y="-1" type="line"/>
      <point x="585" y="-42" type="line"/>
      <point x="600" y="-42" type="line"/>
      <point x="600" y="615" type="line"/>
    </contour>
    <contour>
      <point x="-30" y="650" type="line"/>
      <point x="-30" y="634" type="line"/>
      <point x="1" y="575" type="line"/>
      <point x="962" y="575" type="line"/>
      <point x="962" y="590" type="line"/>
      <point x="931" y="650" type="line"/>
    </contour>
  </outline>
</glyph>
<glyph name="uni0932094D0932" format="1">
  <advance width="1354"/>
  <outline>
    <contour>
      <point x="1130" y="606" type="line"/>
      <point x="1130" y="26" type="line"/>
      <point x="1242" y="-37" type="line"/>
      <point x="1264" y="-37" type="line"/>
      <point x="1264" y="606" type="line"/>
    </contour>
    <contour>
      <point x="652" y="474"/>
      <point x="575" y="393"/>
      <point x="575" y="283" type="curve" smooth="yes"/>
      <point x="575" y="130"/>
      <point x="735" y="12"/>
      <point x="839" y="-51" type="curve"/>
      <point x="870" y="-18" type="line"/>
      <point x="772" y="61"/>
      <point x="700" y="151"/>
      <point x="700" y="245" type="curve" smooth="yes"/>
      <point x="700" y="320"/>
      <point x="753" y="365"/>
      <point x="806" y="365" type="curve" smooth="yes"/>
      <point x="834" y="365"/>
      <point x="875" y="358"/>
      <point x="919" y="321" type="curve"/>
      <point x="941" y="362" type="line"/>
      <point x="865" y="440"/>
      <point x="820" y="474"/>
      <point x="749" y="474" type="curve" smooth="yes"/>
    </contour>
    <contour>
      <point x="955" y="454"/>
      <point x="868" y="347"/>
      <point x="846" y="234" type="curve"/>
      <point x="961" y="165" type="line"/>
      <point x="979" y="246"/>
      <point x="1041" y="362"/>
      <point x="1114" y="362" type="curve" smooth="yes"/>
      <point x="1132" y="362"/>
      <point x="1146" y="352"/>
      <point x="1156" y="342" type="curve"/>
      <point x="1157" y="379" type="line"/>
      <point x="1135" y="413"/>
      <point x="1103" y="454"/>
      <point x="1067" y="454" type="curve" smooth="yes"/>
    </contour>
    <contour>
      <point x="113" y="474"/>
      <point x="36" y="393"/>
      <point x="36" y="283" type="curve" smooth="yes"/>
      <point x="36" y="130"/>
      <point x="196" y="12"/>
      <point x="300" y="-51" type="curve"/>
      <point x="331" y="-18" type="line"/>
      <point x="233" y="61"/>
      <point x="161" y="151"/>
      <point x="161" y="245" type="curve" smooth="yes"/>
      <point x="161" y="320"/>
      <point x="214" y="365"/>
      <point x="267" y="365" type="curve" smooth="yes"/>
      <point x="295" y="365"/>
      <point x="336" y="358"/>
      <point x="380" y="321" type="curve"/>
      <point x="402" y="362" type="line"/>
      <point x="326" y="440"/>
      <point x="281" y="474"/>
      <point x="210" y="474" type="curve" smooth="yes"/>
    </contour>
    <contour>
      <point x="416" y="454"/>
      <point x="329" y="347"/>
      <point x="307" y="234" type="curve"/>
      <point x="422" y="165" type="line"/>
      <point x="440" y="246"/>
      <point x="502" y="362"/>
      <point x="575" y="362" type="curve" smooth="yes"/>
      <point x="593" y="362"/>
      <point x="607" y="352"/>
      <point x="617" y="342" type="curve"/>
      <point x="618" y="379" type="line"/>
      <point x="596" y="413"/>
      <point x="564" y="454"/>
      <point x="528" y="454" type="curve" smooth="yes"/>
    </contour>
    <contour>
      <point x="-56" y="669" type="line"/>
      <point x="-56" y="647" type="line"/>
      <point x="-9" y="556" type="line"/>
      <point x="1354" y="556" type="line"/>
      <point x="1354" y="577" type="line"/>
      <point x="1304" y="669" type="line"/>
    </contour>
  </outline>
</glyph>
<glyph name="uni0919094D0917" format="1">
  <advance width="704"/>
  <outline>
    <contour>
      <point x="-31" y="650" type="line"/>
      <point x="-31" y="634" type="line"/>
      <point x="0" y="575" type="line"/>
      <point x="366" y="575" type="line"/>
      <point x="366" y="495" type="line"/>
      <point x="213" y="495" type="line" smooth="yes"/>
      <point x="159" y="495"/>
      <point x="123" y="468"/>
      <point x="123" y="413" type="curve" smooth="yes"/>
      <point x="123" y="363"/>
      <point x="226" y="269"/>
      <point x="264" y="269" type="curve" smooth="yes"/>
      <point x="302" y="269"/>
      <point x="359" y="298"/>
      <point x="420" y="298" type="curve"/>
      <point x="431" y="292"/>
      <point x="442" y="274"/>
      <point x="442" y="255" type="curve" smooth="yes"/>
      <point x="442" y="215"/>
      <point x="393" y="188"/>
      <point x="321" y="188" type="curve" smooth="yes"/>
      <point x="224" y="188"/>
      <point x="148" y="223"/>
      <point x="54" y="347" type="curve"/>
      <point x="17" y="310" type="line"/>
      <point x="131" y="174"/>
      <point x="239" y="125"/>
      <point x="348" y="121" type="curve"/>
      <point x="475" y="121"/>
      <point x="513" y="183"/>
      <point x="513" y="232" type="curve" smooth="yes"/>
      <point x="513" y="277"/>
      <point x="436" y="364"/>
      <point x="379" y="364" type="curve" smooth="yes"/>
      <point x="345" y="364"/>
      <point x="253" y="339"/>
      <point x="237" y="339" type="curve" smooth="yes"/>
      <point x="225" y="339"/>
      <point x="208" y="355"/>
      <point x="208" y="379" type="curve" smooth="yes"/>
      <point x="208" y="397"/>
      <point x="218" y="425"/>
      <point x="245" y="425" type="curve" smooth="yes"/>
      <point x="455" y="425" type="line"/>
      <point x="455" y="575" type="line"/>
      <point x="704" y="575" type="line"/>
      <point x="704" y="590" type="line"/>
      <point x="671" y="650" type="line"/>
    </contour>
    <contour>
      <point x="607" y="313" type="line"/>
      <point x="684" y="392" type="line"/>
      <point x="606" y="470" type="line"/>
      <point x="530" y="391" type="line"/>
    </contour>
    <contour>
      <point x="105" y="0" type="line"/>
      <point x="102" y="-11"/>
      <point x="100" y="-21"/>
      <point x="100" y="-41" type="curve" smooth="yes"/>
      <point x="100" y="-75"/>
      <point x="128" y="-144"/>
      <point x="195" y="-144" type="curve" smooth="yes"/>
      <point x="256" y="-144"/>
      <point x="264" y="-83"/>
      <point x="264" y="-48" type="curve" smooth="yes"/>
      <point x="264" y="16"/>
      <point x="258" y="96"/>
      <point x="249" y="160" type="curve"/>
      <point x="184" y="191" type="line"/>
      <point x="184" y="-14" type="line"/>
    </contour>
    <contour>
      <point x="386" y="155" type="line"/>
      <point x="386" y="-276" type="line"/>
      <point x="448" y="-310" type="line"/>
      <point x="463" y="-310" type="line"/>
      <point x="463" y="174" type="line"/>
    </contour>
  </outline>
</glyph>
<glyph name="uni0936094D0930" format="1">
  <advance width="705"/>
  <outline>
    <contour>
      <point x="160" y="659"/>
      <point x="81" y="596"/>
      <point x="81" y="528" type="curve" smooth="yes"/>
      <point x="81" y="380"/>
      <point x="347" y="296"/>
      <point x="518" y="252" type="curve"/>
      <point x="518" y="310" type="line"/>
      <point x="384" y="334"/>
      <point x="157" y="410"/>
      <point x="157" y="503" type="curve" smooth="yes"/>
      <point x="157" y="549"/>
      <point x="203" y="597"/>
      <point x="250" y="597" type="curve" smooth="yes"/>
      <point x="292" y="597"/>
      <point x="315" y="568"/>
      <point x="315" y="529" type="curve" smooth="yes"/>
      <point x="315" y="431"/>
      <point x="125" y="324"/>
      <point x="0" y="250" type="curve"/>
      <point x="80" y="182" type="line"/>
      <point x="190" y="254"/>
      <point x="388" y="397"/>
      <point x="388" y="507" type="curve" smooth="yes"/>
      <point x="388" y="577"/>
      <point x="299" y="659"/>
      <point x="224" y="659" type="curve" smooth="yes"/>
    </contour>
    <contour>
      <point x="121" y="55" type="line"/>
      <point x="200" y="-13" type="line"/>
      <point x="537" y="246" type="line"/>
      <point x="495" y="302" type="line"/>
    </contour>
    <contour>
      <point x="507" y="605" type="line"/>
      <point x="507" y="231" type="line"/>
      <point x="508" y="224" type="line"/>
      <point x="505" y="0" type="line"/>
      <point x="579" y="-42" type="line"/>
      <point x="595" y="-42" type="line"/>
      <point x="595" y="605" type="line"/>
    </contour>
    <contour>
      <point x="398" y="650" type="line"/>
      <point x="398" y="634" type="line"/>
      <point x="429" y="575" type="line"/>
      <point x="705" y="575" type="line"/>
      <point x="705" y="590" type="line"/>
      <point x="672" y="650" type="line"/>
    </contour>
  </outline>
</glyph>
<glyph name="uni0924094D0930" format="1">
  <advance width="598"/>
  <outline>
    <contour>
      <point x="84" y="68" type="line"/>
      <point x="144" y="1" type="line"/>
      <point x="429" y="248" type="line"/>
      <point x="442" y="342" type="line"/>
    </contour>
    <contour>
      <point x="138" y="466"/>
      <point x="55" y="440"/>
      <point x="34" y="432" type="curve"/>
      <point x="82" y="346" type="line"/>
      <point x="112" y="357"/>
      <point x="173" y="381"/>
      <point x="224" y="381" type="curve" smooth="yes"/>
      <point x="280" y="381"/>
      <point x="341" y="365"/>
      <point x="413" y="296" type="curve"/>
      <point x="417" y="348" type="line"/>
      <point x="342" y="410"/>
      <point x="256" y="466"/>
      <point x="185" y="466" type="curve" smooth="yes"/>
    </contour>
    <contour>
      <point x="401" y="595" type="line"/>
      <point x="401" y="261" type="line"/>
      <point x="354" y="239" type="line"/>
      <point x="403" y="222" type="line"/>
      <point x="399" y="0" type="line"/>
      <point x="473" y="-42" type="line"/>
      <point x="489" y="-42" type="line"/>
      <point x="489" y="595" type="line"/>
    </contour>
    <contour>
      <point x="-31" y="650" type="line"/>
      <point x="-31" y="634" type="line"/>
      <point x="0" y="575" type="line"/>
      <point x="598" y="575" type="line"/>
      <point x="598" y="590" type="line"/>
      <point x="567" y="650" type="line"/>
    </contour>
  </outline>
</glyph>
